<?xml version="1.0" standalone="no"?>
<!DOCTYPE svg PUBLIC "-//W3C//DTD SVG 20010904//EN"
 "http://www.w3.org/TR/2001/REC-SVG-20010904/DTD/svg10.dtd">
<svg version="1.0" xmlns="http://www.w3.org/2000/svg"
 width="700.000000pt" height="700.000000pt" viewBox="0 0 700.000000 700.000000"
 preserveAspectRatio="xMidYMid meet">
<metadata>
Created by potrace 1.11, written by Peter Selinger 2001-2013
</metadata>
<g transform="translate(0.000000,700.000000) scale(0.100000,-0.100000)"
fill="#000000" stroke="none">
<path d="M0 3500 l0 -3500 3500 0 3500 0 0 3500 0 3500 -3500 0 -3500 0 0
-3500z m5843 2468 c-6 -7 -396 -691 -867 -1519 l-857 -1507 555 -940 c305
-517 559 -949 565 -961 l12 -21 -583 0 -583 1 -565 958 c-311 527 -564 961
-564 965 1 7 432 765 1416 2494 l309 542 586 0 c467 0 583 -3 576 -12z m-3103
-1355 c140 -263 280 -525 311 -583 l56 -105 -421 -695 -421 -695 -553 -3
c-303 -1 -552 0 -552 3 0 2 188 314 417 692 229 378 416 692 416 699 0 6 -137
267 -304 579 -167 313 -305 572 -307 577 -2 4 245 8 550 8 l553 0 255 -477z"/>
</g>
</svg>
